{"title":"WWE Friday Night SmackDown 2014-05-02 XVID Alex@nder -={SPARROW}","uid":10082119,"size":1609882079,"categoryP":"video","categoryS":"tv_shows","magnet":"?xt=urn:btih:68031b7f5784e7235686d6d7f64b1e8179dade30&amp;dn=WWE+Friday+Night+SmackDown+2014-05-02+XVID+Alex%40nder+-%3D%7BSPARROW%7D&amp;tr=udp%3A%2F%2Ftracker.openbittorrent.com%3A80&amp;tr=udp%3A%2F%2Fopen.demonii.com%3A1337&amp;tr=udp%3A%2F%2Ftracker.coppersurfer.tk%3A6969&amp;tr=udp%3A%2F%2Fexodus.desync.com%3A6969","seeders":2,"leechers":0,"uploader":"CenaCme","files":-1,"time":1399029519,"description":"Format                        : AVI\nFormat/Info                    : Audio Video Interleave\nFormat profile                : OpenDML\nFile size                      : 1.50 GiB\nDuration                      : 1h 37mn\nOverall bit rate              : 2 194 Kbps\nWriting application            : Lavf55.33.100\n\nVideo\nID                            : 0\nFormat                        : MPEG-4 Visual\nFormat profile                : Advanced Simple@L5\nFormat settings, BVOP          : No\nFormat settings, QPel          : No\nFormat settings, GMC          : No warppoints\nFormat settings, Matrix        : Default (H.263)\nCodec ID                      : XVID\nCodec ID/Hint                  : XviD\nDuration                      : 1h 37mn\nBit rate                      : 1 798 Kbps\nWidth                          : 720 pixels\nHeight                        : 400 pixels\nDisplay aspect ratio          : 16:9\nFrame rate                    : 25.000 fps\nColor space                    : YUV\nChroma subsampling            : 4:2:0\nBit depth                      : 8 bits\nScan type                      : Progressive\nCompression mode              : Lossy\nBits/(Pixel*Frame)            : 0.250\nStream size                    : 1.23 GiB (82%)\nWriting library                : XviD 64\n\nAudio\nID                            : 1\nFormat                        : AC-3\nFormat/Info                    : Audio Coding 3\nMode extension                : CM (complete main)\nFormat settings, Endianness    : Big\nCodec ID                      : 2000\nDuration                      : 1h 37mn\nBit rate mode                  : Constant\nBit rate                      : 384 Kbps\nChannel(s)                    : 2 channels\nChannel positions              : Front: L R\nSampling rate                  : 48.0 KHz\nBit depth                      : 16 bits\nCompression mode              : Lossy\nStream size                    : 269 MiB (17%)\nAlignment                      : Aligned on interleaves\nInterleave, duration          : 32 ms (0.80 video frame)","torrent":{"xt":"urn:btih:68031b7f5784e7235686d6d7f64b1e8179dade30","amp;dn":"WWE+Friday+Night+SmackDown+2014-05-02+XVID+Alex%40nder+-%3D%7BSPARROW%7D","amp;tr":["udp%3A%2F%2Ftracker.openbittorrent.com%3A80","udp%3A%2F%2Fopen.demonii.com%3A1337","udp%3A%2F%2Ftracker.coppersurfer.tk%3A6969","udp%3A%2F%2Fexodus.desync.com%3A6969"],"infoHash":"68031b7f5784e7235686d6d7f64b1e8179dade30","infoHashBuffer":{"type":"Buffer","data":[104,3,27,127,87,132,231,35,86,134,214,215,246,75,30,129,121,218,222,48]},"announce":[],"urlList":[]}}